<svg xmlns="http://www.w3.org/2000/svg" viewBox="0 0 300 48">
  <defs>
    <style>
      .cls-1 {
        fill: #e30613;
      }

      .cls-2 {
        fill: #283583;
      }
    </style>
  </defs>
  <g id="Gruppe_83" data-name="Gruppe 83" transform="translate(-475 -120)">
    <path id="Pfad_41" data-name="Pfad 41" class="cls-1" d="M371.873,9.318V.7h-30.76V9.318h10.526V36.176h9.708V9.318ZM347.039,27.563H330.08V.7h-9.708V36.176h26.706V27.563Zm-34.7,3.954A17.653,17.653,0,0,0,317.76,18.44v-.117a17.53,17.53,0,0,0-5.38-13A18.27,18.27,0,0,0,298.969,0,18.481,18.481,0,0,0,285.48,5.364a17.653,17.653,0,0,0-5.419,13.077v.117a17.53,17.53,0,0,0,5.38,13,19.6,19.6,0,0,0,26.9-.039Zm-4.483-13a9.388,9.388,0,0,1-2.456,6.617,8.756,8.756,0,0,1-12.943-.078,9.5,9.5,0,0,1-2.5-6.695v-.117a9.57,9.57,0,0,1,2.5-6.695,8.191,8.191,0,0,1,6.394-2.78,8.371,8.371,0,0,1,6.472,2.819,9.651,9.651,0,0,1,2.573,6.773v.157Zm-29.591,7.869v-.117c0-4.228-2.339-7.126-6.979-8.653,3.587-1.605,5.419-4.228,5.419-7.909V9.592a7.717,7.717,0,0,0-2.261-5.716c-2.105-2.114-5.3-3.21-9.552-3.21H246.922V36.137h18.09c4.172,0,7.446-.861,9.747-2.623a8.282,8.282,0,0,0,3.509-7.126Zm-11.15-14.643c0,2.075-1.52,3.093-4.6,3.093H256.4V8.613h6.316c2.924,0,4.405,1.018,4.405,3.054v.078Zm1.443,13.272c0,2.153-1.559,3.25-4.639,3.25H256.4V21.729H263.8c3.158,0,4.756,1.057,4.756,3.171v.117Zm-34.893-15.7h10.526V.7h-30.76V9.318h10.526V36.176h9.708V9.318Zm-21.754,15.9V25.1a8.807,8.807,0,0,0-3.509-7.361c-1.988-1.488-5.146-2.7-9.552-3.68a20.043,20.043,0,0,1-4.834-1.527,2.108,2.108,0,0,1-1.209-1.918v-.117c0-1.527,1.17-2.271,3.509-2.271a17,17,0,0,1,9.825,3.485l4.873-6.93c-3.86-3.132-8.694-4.7-14.425-4.7-4.133,0-7.446,1.057-9.9,3.171a10.3,10.3,0,0,0-3.665,8.183v.117a8.7,8.7,0,0,0,3.821,7.635c1.871,1.331,4.99,2.467,9.4,3.485A19.411,19.411,0,0,1,201,24.235a2.112,2.112,0,0,1,1.17,1.84v.117c0,1.605-1.326,2.427-4.016,2.427a17.7,17.7,0,0,1-11.384-4.268l-5.419,6.538c4.327,3.915,9.825,5.873,16.413,5.873,4.288,0,7.758-1.018,10.331-3.093a10.262,10.262,0,0,0,3.821-8.457ZM181.348,36.176,166.416.47h-9.357L142.127,36.176h10.214l2.5-6.343h13.528l2.573,6.343h10.409ZM165.558,22.2h-7.875l3.938-10.062L165.558,22.2ZM127.508,9.318h18.324V.7H117.8V36.176h9.708V23.491h16.569V15.347H127.508V9.318Z" transform="translate(403.127 120)"/>
    <path id="Pfad_42" data-name="Pfad 42" class="cls-2" d="M120.1,109.078v-2.936h4.016v-1.879h-3.977v-1.409h4.405v-2H117.8v8.222Zm9.4,0,.585-1.449h3.275l.624,1.449h2.5l-3.587-8.261h-2.261l-3.587,8.261Zm2.222-5.56.936,2.349h-1.91l.975-2.349Zm13.489,4.972a2.329,2.329,0,0,0,.936-1.958v-.039a1.918,1.918,0,0,0-.858-1.684,6.292,6.292,0,0,0-2.3-.861,4.214,4.214,0,0,1-1.17-.352.549.549,0,0,1-.312-.431v-.039c0-.352.273-.509.858-.509a4.255,4.255,0,0,1,2.378.822l1.17-1.605a5.414,5.414,0,0,0-3.47-1.1,3.468,3.468,0,0,0-2.378.744,2.359,2.359,0,0,0-.9,1.879v.039a1.943,1.943,0,0,0,.936,1.762,6.924,6.924,0,0,0,2.261.822,4.3,4.3,0,0,1,1.131.352.457.457,0,0,1,.273.431v.039c0,.392-.312.548-.975.548a4.251,4.251,0,0,1-2.729-.979l-1.287,1.527a5.882,5.882,0,0,0,3.938,1.37,4.6,4.6,0,0,0,2.5-.783Zm8.577.587v-6.225h2.534v-2h-7.407v2h2.534v6.225Zm12.515,0V107.16h-4.522v-1.292h4.055v-1.8h-4.055v-1.253h4.483V100.9h-6.784v8.222H166.3Zm5.614,0v-4.5l3.626,4.5H177.6v-8.222h-2.3V105.2l-3.47-4.346h-2.183v8.222Zm16.14,0V107.16h-4.522v-1.292h4.055v-1.8h-4.055v-1.253h4.483V100.9h-6.784v8.222h6.823Zm5.653,0v-2.506h1.014l1.715,2.506h2.69L197.1,106.22a2.544,2.544,0,0,0,1.754-2.506v-.039a2.572,2.572,0,0,0-.741-1.918,3.86,3.86,0,0,0-2.768-.9h-3.977v8.222h2.339Zm0-6.264h1.52c.858,0,1.248.313,1.248.979v.039a.792.792,0,0,1-.351.7,1.658,1.658,0,0,1-.936.274h-1.559v-2Zm14.23,5.677a2.329,2.329,0,0,0,.936-1.958v-.039a1.918,1.918,0,0,0-.858-1.684,6.292,6.292,0,0,0-2.3-.861,4.214,4.214,0,0,1-1.17-.352.549.549,0,0,1-.312-.431v-.039c0-.352.273-.509.858-.509a4.255,4.255,0,0,1,2.378.822l1.17-1.605a5.414,5.414,0,0,0-3.47-1.1,3.468,3.468,0,0,0-2.378.744,2.359,2.359,0,0,0-.9,1.879v.039a1.943,1.943,0,0,0,.936,1.762,6.924,6.924,0,0,0,2.261.822,4.3,4.3,0,0,1,1.131.352.457.457,0,0,1,.273.431v.039c0,.392-.312.548-.975.548a4.251,4.251,0,0,1-2.729-.979L201.5,107.9a5.882,5.882,0,0,0,3.938,1.37,4.6,4.6,0,0,0,2.5-.783Zm11.969.587v-2.936h3.977v-1.879H219.9v-1.409h4.405v-2h-6.745v8.222Zm15.088-1.1a4.074,4.074,0,0,0,1.326-3.015v-.039a4.036,4.036,0,0,0-1.287-3.015,4.862,4.862,0,0,0-6.472.039,4.074,4.074,0,0,0-1.326,3.015v.039a4.036,4.036,0,0,0,1.287,3.015,4.5,4.5,0,0,0,3.236,1.214,4.592,4.592,0,0,0,3.236-1.253Zm-4.8-1.449a2.228,2.228,0,0,1-.585-1.566v-.039a2.228,2.228,0,0,1,.585-1.566,1.94,1.94,0,0,1,1.52-.626,2.2,2.2,0,0,1,2.183,2.232v.039a2.07,2.07,0,0,1-.585,1.527,2.16,2.16,0,0,1-3.119,0Zm11.774,2.545v-2.506h1.014l1.715,2.506h2.69l-2.027-2.858a2.544,2.544,0,0,0,1.754-2.506v-.039a2.572,2.572,0,0,0-.741-1.918,3.86,3.86,0,0,0-2.768-.9h-3.977v8.222h2.339Zm0-6.264h1.52c.858,0,1.248.313,1.248.979v.039a.792.792,0,0,1-.351.7,1.658,1.658,0,0,1-.936.274h-1.559v-2Zm17.115,6.264a5.177,5.177,0,0,0,3.548-1.175,3.721,3.721,0,0,0,1.248-2.936v-.039a3.794,3.794,0,0,0-1.248-2.936,5.181,5.181,0,0,0-3.509-1.135H255.85v8.222Zm-.9-6.186h.936a2.468,2.468,0,0,1,1.676.548,1.851,1.851,0,0,1,.624,1.527v.039a1.851,1.851,0,0,1-.624,1.527,2.54,2.54,0,0,1-1.676.548h-.936v-4.189Zm11.423,6.186v-8.222h-2.339v8.222Zm9.474-.587a2.329,2.329,0,0,0,.936-1.958v-.039a1.918,1.918,0,0,0-.858-1.684,6.292,6.292,0,0,0-2.3-.861,4.214,4.214,0,0,1-1.17-.352.549.549,0,0,1-.312-.431v-.039c0-.352.273-.509.858-.509a4.255,4.255,0,0,1,2.378.822l1.17-1.605a5.414,5.414,0,0,0-3.47-1.1,3.468,3.468,0,0,0-2.378.744,2.359,2.359,0,0,0-.9,1.879v.039a1.943,1.943,0,0,0,.936,1.762,6.924,6.924,0,0,0,2.261.822,4.3,4.3,0,0,1,1.131.352.457.457,0,0,1,.273.431v.039c0,.392-.312.548-.975.548a4.251,4.251,0,0,1-2.729-.979l-1.287,1.527a5.882,5.882,0,0,0,3.938,1.37,4.718,4.718,0,0,0,2.5-.783Zm8.538.587v-6.225h2.534v-2h-7.407v2h2.534v6.225Zm8.031,0v-2.506h1.014l1.715,2.506h2.69l-2.027-2.858a2.544,2.544,0,0,0,1.754-2.506v-.039a2.572,2.572,0,0,0-.741-1.918,3.86,3.86,0,0,0-2.768-.9h-3.977v8.222h2.339Zm0-6.264h1.52c.858,0,1.248.313,1.248.979v.039a.792.792,0,0,1-.351.7,1.658,1.658,0,0,1-.936.274h-1.559v-2Zm10.838,6.264v-8.222h-2.339v8.222Zm7.992,0a3.974,3.974,0,0,0,2.339-.587,1.941,1.941,0,0,0,.858-1.644v-.039a2.017,2.017,0,0,0-1.676-2,1.875,1.875,0,0,0,1.287-1.84v-.039a1.8,1.8,0,0,0-.546-1.331,3.134,3.134,0,0,0-2.3-.744h-4.327v8.222Zm-2.066-6.382h1.52q1.053,0,1.053.7v.039c0,.47-.351.7-1.092.7h-1.482V102.7Zm0,3.015h1.793c.78,0,1.131.235,1.131.744v.039c0,.509-.39.744-1.131.744h-1.793v-1.527Zm15.127,2.584a3.783,3.783,0,0,0,1.092-2.9v-4.542h-2.378v4.62c0,1.135-.507,1.684-1.559,1.684s-1.559-.587-1.559-1.762v-4.581h-2.378v4.62a3.585,3.585,0,0,0,1.053,2.819,4.016,4.016,0,0,0,2.846.9,3.718,3.718,0,0,0,2.885-.861Zm9.006.783v-6.225h2.534v-2h-7.407v2h2.534v6.225Zm13.138-1.1a4.074,4.074,0,0,0,1.326-3.015v-.039a4.036,4.036,0,0,0-1.287-3.015,4.862,4.862,0,0,0-6.472.039,4.074,4.074,0,0,0-1.326,3.015v.039a4.036,4.036,0,0,0,1.287,3.015,4.862,4.862,0,0,0,6.472-.039Zm-4.756-1.449a2.228,2.228,0,0,1-.585-1.566v-.039a2.228,2.228,0,0,1,.585-1.566,1.94,1.94,0,0,1,1.52-.626,2.2,2.2,0,0,1,2.183,2.232v.039a2.07,2.07,0,0,1-.585,1.527,2.116,2.116,0,0,1-1.559.666,2.055,2.055,0,0,1-1.559-.666Zm11.735,2.545v-2.506h1.014l1.715,2.506h2.69l-2.027-2.858a2.544,2.544,0,0,0,1.754-2.506v-.039a2.572,2.572,0,0,0-.741-1.918,3.86,3.86,0,0,0-2.768-.9h-3.977v8.222h2.339Zm0-6.264h1.52c.858,0,1.248.313,1.248.979v.039a.791.791,0,0,1-.351.7,1.658,1.658,0,0,1-.936.274h-1.559v-2Zm14.269,5.677a2.329,2.329,0,0,0,.936-1.958v-.039a1.918,1.918,0,0,0-.858-1.684,6.292,6.292,0,0,0-2.3-.861,4.214,4.214,0,0,1-1.17-.352.549.549,0,0,1-.312-.431v-.039c0-.352.273-.509.858-.509a4.255,4.255,0,0,1,2.378.822l1.17-1.605a5.414,5.414,0,0,0-3.47-1.1,3.468,3.468,0,0,0-2.378.744,2.359,2.359,0,0,0-.9,1.879v.039a1.943,1.943,0,0,0,.936,1.762,6.924,6.924,0,0,0,2.261.822,4.3,4.3,0,0,1,1.131.352.457.457,0,0,1,.273.431v.039c0,.392-.312.548-.975.548a4.251,4.251,0,0,1-2.729-.979L364.5,107.9a5.882,5.882,0,0,0,3.938,1.37,4.6,4.6,0,0,0,2.5-.783Z" transform="translate(403.127 58.726)"/>
    <path id="Pfad_43" data-name="Pfad 43" class="cls-2" d="M35.788,37.682c.039-1.566-.975-.9-.975-.9a17.2,17.2,0,0,0-5.965,5.285,3.578,3.578,0,0,0-.741,1.762,46.263,46.263,0,0,0,.039,4.816c.078,1.879,1.442.822,1.442.822l.7-.626a40.2,40.2,0,0,0,4.288-4.463,3.983,3.983,0,0,0,1.17-2.467l.039-4.228Zm-7.8,16.835c.546-2.78-1.754-3.132-1.754-3.132L26,53.7c-.039.157-.312.352-.312.352-2.846,2.427-7.914,2.075-7.914,2.075a16.671,16.671,0,0,1-7.758-2.192.923.923,0,0,0-1.092-.2l-.975.666c-.741.626.195,1.449.195,1.449,2.3,2.545,6.316,3.132,6.316,3.132,6.355,1.1,10.253-.822,10.253-.822a5.2,5.2,0,0,0,3.275-3.641Zm-.936-5.56.039-4.189s.039-1.8-1.481-1.958l-.546-.039s-3.119-.2-7.212-.157c-4.094-.039-7.212.157-7.212.157l-.546.039c-1.52.157-1.481,1.958-1.481,1.958l.039,4.189a2,2,0,0,0,1.326,2,37.255,37.255,0,0,0,7.836.94h.078a32.716,32.716,0,0,0,7.836-.94,1.957,1.957,0,0,0,1.326-2ZM7.64,48.645a46.264,46.264,0,0,0,.039-4.816,3.449,3.449,0,0,0-.741-1.762A16.775,16.775,0,0,0,.973,36.782s-1.014-.626-.975.9L.037,41.91a3.74,3.74,0,0,0,1.17,2.467A40.2,40.2,0,0,0,5.5,48.84l.7.626c.039,0,1.365,1.057,1.442-.822ZM8.809,60.7C8.146,61.251,9,62,9,62A10.589,10.589,0,0,0,14.7,64.814c5.731.979,9.2-.744,9.2-.744a4.665,4.665,0,0,0,2.963-3.25c.468-2.388-1.326-2.741-1.326-2.741l-.195,1.605a3.063,3.063,0,0,1-.624.7c-2.534,2.192-7.134,1.84-7.134,1.84A14.8,14.8,0,0,1,10.6,60.273a.907.907,0,0,0-1.014-.157l-.78.587Zm1.014,5.56c-.624.509.156,1.175.156,1.175a9.614,9.614,0,0,0,5.107,2.545,14.382,14.382,0,0,0,8.3-.666,4.175,4.175,0,0,0,2.651-2.936c.39-2.232-1.17-2.467-1.17-2.467l-.117,1.37a3.076,3.076,0,0,1-.624.7c-2.3,1.958-6.433,1.684-6.433,1.684a13.342,13.342,0,0,1-6.277-1.762c-.546-.392-.9-.157-.9-.157l-.7.509Z" transform="translate(475.003 97.704)"/>
    <path id="Pfad_44" data-name="Pfad 44" class="cls-1" d="M18.249,17.226V11.745h7.212V8.182H18.249V5.559h7.992V1.8H14V17.226Zm16.764,0a7.04,7.04,0,0,0,4.249-1.135,3.677,3.677,0,0,0,1.52-3.132v-.039q0-2.76-3.041-3.759a3.554,3.554,0,0,0,2.339-3.445V5.676a3.37,3.37,0,0,0-.975-2.506A5.6,5.6,0,0,0,34.975,1.8H27.138V17.226ZM31.271,5.245H34c1.287,0,1.91.431,1.91,1.331v.039c0,.9-.663,1.331-1.988,1.331H31.271v-2.7Zm0,5.716h3.236c1.365,0,2.066.47,2.066,1.37v.039c0,.94-.663,1.409-2.027,1.409H31.271V10.961Z" transform="translate(466.459 118.905)"/>
  </g>
</svg>
